<?xml version="1.0" encoding="UTF-8"?>
<svg version="1.1" xmlns="http://www.w3.org/2000/svg" width="512" height="512">
<path d="M0 0 C2.49079917 1.75873368 2.9545083 2.76322791 3.53662109 5.79296875 C3.65384521 7.47326172 3.65384521 7.47326172 3.7734375 9.1875 C3.87301758 10.43450684 3.97259766 11.68151367 4.07519531 12.96630859 C4.12341431 13.62491882 4.1716333 14.28352905 4.22131348 14.96209717 C6.79042186 49.0288008 19.33265204 78.45592486 43.72265625 102.76953125 C52.83763043 111.88939216 52.83763043 111.88939216 53.390625 115.671875 C53.17454468 117.28733265 52.94314211 118.90082627 52.6953125 120.51171875 C53.36233421 125.95906274 59.50847434 129.93135982 63.40917969 133.47558594 C66.6707201 136.60097856 69.36692562 140.18040288 72.16015625 143.72265625 C74.39492502 146.54773388 74.39492502 146.54773388 77 149 C78.093125 148.9175 79.18625 148.835 80.3125 148.75 C84.34273227 149.02323609 84.78979537 149.25303666 87.375 152.0625 C90.05667925 155.61178136 91 158.48450784 91 163 C90.58492187 163.70769531 90.16984375 164.41539062 89.7421875 165.14453125 C88.53936181 169.77224484 90.97625369 172.9800834 93.125 177.0625 C93.97512973 178.75918407 94.82020455 180.45841052 95.66015625 182.16015625 C96.06766113 182.98531738 96.47516602 183.81047852 96.89501953 184.66064453 C99.4509485 190.0718048 102 195.96488446 102 202 C102.928125 202.0825 103.85625 202.165 104.8125 202.25 C108 203 108 203 109.59765625 204.5703125 C111.45172644 207.78265696 112.02973553 211.01465568 112.625 214.625 C112.74979736 215.33994629 112.87459473 216.05489258 113.00317383 216.79150391 C114.22433415 223.96612465 115.0497405 231.00259181 115.01953125 238.2890625 C115.01530151 239.6186499 115.01530151 239.6186499 115.01098633 240.97509766 C115.00736084 241.64331543 115.00373535 242.3115332 115 243 C116.72331543 242.97643433 116.72331543 242.97643433 118.48144531 242.95239258 C122.79777851 242.89755004 127.11408177 242.86345496 131.43066406 242.83520508 C133.28878989 242.82024095 135.14688117 242.79986227 137.00488281 242.77368164 C154.05007654 242.53974599 168.21759051 243.63414917 181.3125 255.75 C189.70165407 264.61369208 192.30689385 275.2290437 192.3359375 287.0703125 C192.3425943 288.02839813 192.3492511 288.98648376 192.35610962 289.97360229 C192.3661996 291.99572848 192.37092778 294.01788773 192.37060547 296.04003906 C192.37495723 299.09497728 192.41125709 302.14844388 192.44921875 305.203125 C192.5440847 321.42735639 191.07846108 333.6125295 179.34375 345.70703125 C170.53081337 353.91719627 161.11801249 356.16695403 149.45898438 356.07836914 C147.47945204 356.07225413 145.49991912 356.06632726 143.52038574 356.06056213 C141.95060219 356.0535538 141.95060219 356.0535538 140.34910583 356.04640388 C134.78220114 356.02716958 129.21535227 356.04244659 123.6484375 356.05273438 C116.57561366 356.06496003 109.50339353 356.0667664 102.43066406 356.02416992 C96.70568256 355.99060523 90.98189164 355.99633654 85.25691223 356.02773857 C83.08501223 356.0326381 80.91302993 356.02350246 78.74125671 355.99952888 C65.34838331 355.86042998 56.6883139 356.58200486 46 365 C43.2471114 366.55781168 40.43432223 367.92641174 37.5625 369.25 C36.48730103 369.7462085 36.48730103 369.7462085 35.39038086 370.25244141 C4.37496891 384.18754947 -36.45172021 382.88855475 -68 371 C-84.31440338 364.68334708 -98.64505554 356.2874099 -112 345 C-112.52867676 344.55785156 -113.05735352 344.11570312 -113.60205078 343.66015625 C-133.0846472 327.19977394 -147.42897762 304.54407 -151 279 C-153.6222899 243.82977783 -141.24228001 218.11076934 -122.99853516 189.00463867 C-117.08605286 179.5640157 -111.65768794 170.12240102 -107 160 C-106.58234375 159.11570313 -106.1646875 158.23140625 -105.734375 157.3203125 C-100.26351556 144.86798318 -99.60974341 132.50677363 -100.28613281 119.12451172 C-100.5244561 111.70158373 -100.5244561 111.70158373 -97.9296875 108.23046875 C-94.01611541 106.58676847 -92.06720078 106.80064047 -88 108 C-85.61101782 109.5840303 -83.66333845 111.043647 -81.5625 112.9375 C-80.99974365 113.43258057 -80.4369873 113.92766113 -79.85717773 114.43774414 C-68.1439419 124.98083326 -59.71497605 138.03906508 -58.62890625 154.05078125 C-58.58875987 155.47095929 -58.56757066 156.89176369 -58.5625 158.3125 C-58.55863281 159.10446777 -58.55476563 159.89643555 -58.55078125 160.71240234 C-58.6893189 168.33918858 -60.05724878 175.65146873 -61.5 183.125 C-65.5529324 200.6798531 -65.5529324 200.6798531 -62.21875 217.7734375 C-58.12472071 223.72707869 -52.48026679 225.88933123 -45.5625 227.4375 C-36.61852677 228.76531675 -28.88456816 226.42926101 -21.53515625 221.26953125 C-18.69233796 218.72457373 -17.39257916 216.49030336 -15.75 213.0625 C-14.99976563 211.53302734 -14.99976563 211.53302734 -14.234375 209.97265625 C-8.58800679 196.3749151 -12.38561876 180.50411112 -17.40234375 167.3125 C-21.37427164 157.76958894 -26.09449031 148.52827054 -30.58032227 139.22119141 C-43.58498825 112.20314185 -54.96895808 84.52032766 -45.21484375 54.35546875 C-44.81394531 53.24816406 -44.41304688 52.14085937 -44 51 C-43.58878906 49.86175781 -43.17757812 48.72351563 -42.75390625 47.55078125 C-37.36809033 33.92604013 -16.69611984 -4.08884568 0 0 Z " fill="#5A3116" transform="translate(220,67)"/>
<path d="M0 0 C0.99 0.495 0.99 0.495 2 1 C2.5730736 3.63433833 3.03481871 6.21397369 3.4375 8.875 C7.3330708 32.41450557 16.80097606 54.50660634 32 73 C32.43070801 73.5254541 32.86141602 74.0509082 33.30517578 74.59228516 C42.95699873 87.80469405 42.95699873 87.80469405 55 98 C58.37822416 98.14375422 60.77390955 98.07536348 64 97 C71.15619088 103.95710056 78.01821437 110.90240846 84.1953125 118.7578125 C86.41200625 121.56518311 86.41200625 121.56518311 89 124 C90.093125 123.9175 91.18625 123.835 92.3125 123.75 C96.34273227 124.02323609 96.78979537 124.25303666 99.375 127.0625 C102.05667925 130.61178136 103 133.48450784 103 138 C102.58492187 138.70769531 102.16984375 139.41539062 101.7421875 140.14453125 C100.53933492 144.77234829 102.97639309 147.9799455 105.125 152.0625 C105.97506623 153.76051989 106.82014142 155.46104776 107.66015625 157.1640625 C108.06766113 157.98938477 108.47516602 158.81470703 108.89501953 159.66503906 C111.66890537 165.52660428 114 171.47016847 114 178 C113.34 178.391875 112.68 178.78375 112 179.1875 C109.85626758 180.7627989 109.85626758 180.7627989 109.6640625 182.80078125 C109.58972809 186.98580852 110.13142622 190.85268564 111 194.9375 C112.05701664 200.13198177 112.11719828 205.10604456 112.0625 210.37890625 C112.05798828 211.21006958 112.05347656 212.04123291 112.04882812 212.89758301 C112.03713329 214.9317535 112.01920107 216.96588651 112 219 C110.55539398 219.00546844 110.55539398 219.00546844 109.081604 219.01104736 C99.96113479 219.04814926 90.84099848 219.10608616 81.72078323 219.18390274 C77.03308049 219.22324415 72.34556186 219.25549755 67.65771484 219.27099609 C63.12520055 219.28625116 58.59319286 219.3208514 54.06090546 219.36830902 C52.34039488 219.38303222 50.61981195 219.39103575 48.89923859 219.39188385 C34.15193328 219.40645036 22.00728979 221.08518752 11.09765625 231.8828125 C2.46825112 241.18724509 -0.29308077 251.24157958 -0.37109375 263.73046875 C-0.38012222 264.64274734 -0.3891507 265.55502594 -0.39845276 266.49494934 C-0.41288769 268.41692867 -0.42182507 270.33895638 -0.42553711 272.26098633 C-0.43739776 275.16248922 -0.48661987 278.06183744 -0.53710938 280.96289062 C-0.66760819 296.0822497 1.55753955 307.9827361 12.125 319.5625 C20.01515968 327.21561625 30.35831663 329.8798228 41 331 C38.21011191 333.78988809 34.94557329 334.42456862 31.25 335.5 C30.56550781 335.71269531 29.88101563 335.92539062 29.17578125 336.14453125 C17.71166945 339.52364558 5.99342124 340.35428806 -5.90405273 340.31567383 C-7.93332435 340.31250652 -9.96114025 340.33612655 -11.99023438 340.36132812 C-45.30401946 340.52243427 -76.27066933 324.22301081 -99.71875 301.34765625 C-108.33008212 292.29778407 -114.81589448 282.17075694 -119.9375 270.8125 C-120.22004639 270.19608643 -120.50259277 269.57967285 -120.79370117 268.94458008 C-128.00521557 252.07348429 -127.42957375 229.8814022 -120.79492188 212.96386719 C-120.53259766 212.31579102 -120.27027344 211.66771484 -120 211 C-119.75314453 210.36739258 -119.50628906 209.73478516 -119.25195312 209.08300781 C-114.36067225 196.85480564 -107.19164866 185.76129863 -100.27783203 174.60450745 C-86.94692782 153.08065169 -75.95054197 132.54548183 -73 107 C-69.85400994 109.99291336 -67.30287629 112.73001992 -65.25 116.5625 C-64.84265625 117.30628906 -64.4353125 118.05007812 -64.015625 118.81640625 C-57.92755057 131.90576628 -62.37503074 149.74210225 -65.56005859 163.07470703 C-66.46736369 167.04529971 -66.8504493 170.93820298 -67 175 C-67.04664795 175.94721924 -67.04664795 175.94721924 -67.09423828 176.91357422 C-67.60497846 188.18835606 -67.0978324 196.06931442 -59.875 205.1875 C-51.64050675 214.00139256 -40.99826461 218.03302615 -29.125 218.4375 C-16.20205432 218.11477714 -5.62848305 213.08852707 3.25 203.8125 C13.24780749 191.96250905 15.03550488 177.4985594 14.23828125 162.54492188 C12.40634557 142.97924818 2.4788916 124.80031991 -6.22045898 107.59790039 C-10.60341283 98.89370651 -14.78515979 90.20912866 -18 81 C-18.22010742 80.37077637 -18.44021484 79.74155273 -18.66699219 79.09326172 C-24.84233494 60.60033255 -23.86057681 40.53498067 -15.375 23.0625 C-11.27016619 14.97282282 -6.44433099 6.44433099 0 0 Z " fill="#FCBC3F" transform="translate(208,92)"/>
<path d="M0 0 C1.31348923 -0.0071553 2.62697845 -0.01431061 3.98027039 -0.02168274 C7.55481059 -0.04007017 11.12859716 -0.02734048 14.70310521 -0.00759244 C18.45982818 0.00889778 22.21650729 -0.000033 25.97325134 -0.00511169 C32.27851276 -0.0096206 38.58347635 0.00616343 44.88867188 0.03417969 C52.15974413 0.06624026 59.43027993 0.06620664 66.70139033 0.04896492 C73.72163823 0.03305702 80.74169101 0.03985977 87.76193047 0.05690193 C90.73821703 0.06374226 93.71434578 0.06277132 96.69062996 0.05535698 C100.85264601 0.04621624 105.01384495 0.07032039 109.17578125 0.09765625 C110.39941376 0.09113037 111.62304626 0.08460449 112.88375854 0.07788086 C121.63608114 0.17538054 127.54533598 1.95369951 134.77319336 6.81860352 C142.0092187 14.21908397 143.66197442 21.73735467 143.76147461 31.82641602 C143.76954636 32.61450653 143.7776181 33.40259705 143.78593445 34.21456909 C143.79972783 35.88041009 143.81047108 37.54627878 143.81835938 39.2121582 C143.82984275 40.89746521 143.85023658 42.5827369 143.87988281 44.26782227 C144.08593231 55.99998158 143.91055479 66.37122752 136.39819336 76.06860352 C129.72777539 82.78388929 121.86758045 84.08302718 112.68476868 84.18432617 C111.45380966 84.17780029 110.22285065 84.17127441 108.95458984 84.16455078 C107.61797134 84.17162387 106.28136084 84.18037468 104.94476318 84.19065857 C101.34349294 84.2130029 97.74266523 84.21024903 94.14135242 84.2013371 C91.12448065 84.19619859 88.10768997 84.20354254 85.09082657 84.21080917 C77.97063403 84.22775941 70.85065607 84.22429038 63.73046875 84.20751953 C56.4048109 84.19058709 49.07974847 84.20645875 41.75415558 84.23874241 C35.4429929 84.26549335 29.13201496 84.27270001 22.82080132 84.26422733 C19.06071717 84.25931601 15.30099135 84.26141605 11.54095268 84.28201485 C8.00541129 84.30046038 4.47072286 84.29430721 0.93522644 84.26981544 C-0.96782766 84.26247611 -2.87092783 84.27959223 -4.77391052 84.29763794 C-13.46891213 84.20201781 -19.15321941 82.3024886 -25.78149414 76.67407227 C-26.29969727 76.06176758 -26.81790039 75.44946289 -27.35180664 74.81860352 C-27.88547852 74.2140332 -28.41915039 73.60946289 -28.96899414 72.98657227 C-33.06778914 66.5835324 -33.93671612 60.61362409 -33.91040039 53.19750977 C-33.91564224 52.32013657 -33.92088409 51.44276337 -33.92628479 50.5388031 C-33.93267156 48.69417371 -33.93141166 46.8495034 -33.92285156 45.00488281 C-33.91433949 42.204412 -33.94315234 39.40598297 -33.97485352 36.60571289 C-33.97646595 34.80297912 -33.97588719 33.00024178 -33.97290039 31.19750977 C-33.98413437 30.37223282 -33.99536835 29.54695587 -34.00694275 28.69667053 C-33.91082058 20.55734625 -31.01546228 13.24139045 -25.35046387 7.30885887 C-17.8347072 0.57891872 -9.70055505 -0.0928455 0 0 Z " fill="#D7176A" transform="translate(254.476806640625,324.368896484375)"/>
<path d="M0 0 C1.31000977 -0.0299707 1.31000977 -0.0299707 2.64648438 -0.06054688 C8.63100604 -0.05607748 13.37388138 0.91712091 18.3125 4.4375 C24.23549313 11.87920931 23.59594328 19.32461618 23.66259766 28.34277344 C23.67916457 29.9858211 23.70646479 31.62879646 23.74462891 33.27148438 C23.79949704 35.64751328 23.82128218 38.02185983 23.8359375 40.3984375 C23.85860687 41.12880219 23.88127625 41.85916687 23.90463257 42.61166382 C23.88867894 46.47779788 23.43036675 48.2809163 21.08203125 51.40063477 C18.18052281 53.53456327 17.0049189 54.06956849 13.4765625 54.06640625 C12.57679688 54.06833984 11.67703125 54.07027344 10.75 54.07226562 C9.821875 54.04841797 8.89375 54.02457031 7.9375 54 C7.01710938 54.01095703 6.09671875 54.02191406 5.1484375 54.03320312 C-0.95775794 53.9677796 -4.77552733 53.13734505 -9.6875 49.4375 C-12.99730136 45.50923473 -13.26619489 41.53780303 -13.25 36.5625 C-13.2490332 35.85013184 -13.24806641 35.13776367 -13.24707031 34.40380859 C-13.07248998 29.20585853 -12.15545257 26.15723298 -8.390625 22.6015625 C-4.25641628 19.77588773 -1.50220871 19.20239764 3.5625 19.3125 C4.64015625 19.33054687 5.7178125 19.34859375 6.828125 19.3671875 C8.05789063 19.40199219 8.05789063 19.40199219 9.3125 19.4375 C8.6525 18.1175 7.9925 16.7975 7.3125 15.4375 C5.52392578 15.38142578 5.52392578 15.38142578 3.69921875 15.32421875 C2.132781 15.25855968 0.56637616 15.19211232 -1 15.125 C-2.17852539 15.09116211 -2.17852539 15.09116211 -3.38085938 15.05664062 C-4.13818359 15.02119141 -4.89550781 14.98574219 -5.67578125 14.94921875 C-6.37227783 14.92303467 -7.06877441 14.89685059 -7.78637695 14.86987305 C-10.21727789 14.31701244 -11.14516186 13.3610637 -12.6875 11.4375 C-13.0859375 9.5 -13.0859375 9.5 -13.0625 7.4375 C-13.07023437 6.756875 -13.07796875 6.07625 -13.0859375 5.375 C-11.73699865 -1.18454576 -5.27829936 -0.04192151 0 0 Z " fill="#5B3017" transform="translate(339.6875,342.5625)"/>
<path d="M0 0 C1.0209375 -0.01160156 1.0209375 -0.01160156 2.0625 -0.0234375 C4.64972561 0.50861293 5.47796495 1.21840048 7 3.375 C7.51171875 6.07421875 7.51171875 6.07421875 7.6875 9.0625 C7.78611328 10.55330078 7.78611328 10.55330078 7.88671875 12.07421875 C7.92410156 12.83347656 7.96148437 13.59273438 8 14.375 C8.52787109 13.61703125 8.52787109 13.61703125 9.06640625 12.84375 C13.10723385 7.5263163 13.10723385 7.5263163 17.6875 6.75 C21 7.375 21 7.375 22.9375 8.4375 C24.66628519 11.58999064 24.99000653 13.97982423 24 17.375 C21.59927374 21.26114294 18.87344297 24.82809384 16 28.375 C17.91214344 31.94987687 19.88639659 35.22153912 22.3046875 38.48828125 C22.71533447 39.04491455 23.12598145 39.60154785 23.54907227 40.17504883 C24.37966494 41.29261729 25.22623585 42.39851703 26.08959961 43.4909668 C28.4065292 46.63821338 29.00578539 48.20511992 28.87109375 52.16015625 C28 55.375 28 55.375 26.25 57.3125 C23.36203421 58.67626162 22.14968991 59.12492617 19 58.375 C14.31041381 54.28091682 11.1209731 48.69170196 8 43.375 C7.97421875 44.12265625 7.9484375 44.8703125 7.921875 45.640625 C7.46114432 53.64058497 7.46114432 53.64058497 5.3125 57.0625 C2.24237189 58.80500514 0.47787674 58.95464612 -3 58.375 C-5.52074598 56.37205008 -6.83406387 55.16858054 -7.50120544 51.97801208 C-7.50137161 51.08993362 -7.50153778 50.20185516 -7.50170898 49.28686523 C-7.51108994 48.27579208 -7.52047089 47.26471893 -7.53013611 46.2230072 C-7.51890213 45.13750076 -7.50766815 44.05199432 -7.49609375 42.93359375 C-7.49754898 41.81437027 -7.49900421 40.69514679 -7.50050354 39.54200745 C-7.49884433 37.17747391 -7.48728078 34.81292959 -7.46655273 32.44848633 C-7.43758082 28.82261479 -7.44594763 25.19820326 -7.45898438 21.57226562 C-7.45274764 19.27603454 -7.44435721 16.97980808 -7.43359375 14.68359375 C-7.43652939 13.59606308 -7.43946503 12.50853241 -7.44248962 11.38804626 C-7.42980545 10.38012527 -7.41712128 9.37220428 -7.40405273 8.33374023 C-7.39864975 7.44645737 -7.39324677 6.5591745 -7.38768005 5.64500427 C-6.64946952 1.32251964 -4.17674743 -0.04746304 0 0 Z " fill="#5A3017" transform="translate(252,336.625)"/>
<path d="M0 0 C1.04800781 -0.03673828 1.04800781 -0.03673828 2.1171875 -0.07421875 C5.74150252 -0.09473374 7.84568257 0.28094373 10.9609375 2.1796875 C13 4.375 13 4.375 13.625 7.875 C13 11.375 13 11.375 10.9453125 13.55078125 C7.36020165 15.77126768 4.34983755 16.00325379 0.25 16.0625 C-4.23743298 15.79615522 -4.23743298 15.79615522 -8 17.375 C-8.09860131 18.77848735 -8.13078937 20.18680477 -8.1328125 21.59375 C-8.13410156 22.44324219 -8.13539063 23.29273438 -8.13671875 24.16796875 C-8.13285156 25.06128906 -8.12898438 25.95460938 -8.125 26.875 C-8.12886719 27.76832031 -8.13273437 28.66164063 -8.13671875 29.58203125 C-8.13478516 30.85626953 -8.13478516 30.85626953 -8.1328125 32.15625 C-8.13168457 32.94064453 -8.13055664 33.72503906 -8.12939453 34.53320312 C-8.20107442 36.39252988 -8.20107442 36.39252988 -7 37.375 C-3.90645863 37.54476751 -0.82044298 37.67203117 2.27734375 37.71679688 C7.07963423 37.91964412 9.68967594 38.86958079 13 42.375 C13.625 45.875 13.625 45.875 13 49.375 C10.08359145 52.52833149 8.36130109 53.32287198 4.07421875 53.94140625 C2.61223433 53.9687532 1.14945397 53.96642901 -0.3125 53.9375 C-1.07071045 53.92871826 -1.8289209 53.91993652 -2.61010742 53.91088867 C-10.18072359 53.63424333 -14.21641196 51.30509267 -19.375 45.875 C-23.46370249 39.58468848 -23.39779229 33.86430746 -23.4375 26.5625 C-23.47037109 25.50740234 -23.50324219 24.45230469 -23.53710938 23.36523438 C-23.58499221 16.37869402 -22.57977073 11.75456085 -18 6.375 C-12.52404387 1.17284168 -7.41371554 0.01367844 0 0 Z " fill="#5C3018" transform="translate(309,341.625)"/>
<path d="M0 0 C2.92672652 2.0536161 4.7286472 3.68533823 5.46929932 7.27368164 C5.66302582 10.13133058 5.69280798 12.94836338 5.6640625 15.8125 C5.66884613 16.85897705 5.67362976 17.9054541 5.67855835 18.98364258 C5.68195548 21.19256089 5.67276625 23.40152961 5.65185547 25.61035156 C5.62508896 28.9887721 5.65161143 32.36387014 5.68359375 35.7421875 C5.68028962 37.89063232 5.67388333 40.03907508 5.6640625 42.1875 C5.67418365 43.19594971 5.68430481 44.20439941 5.69473267 45.2434082 C5.61589217 49.96799408 5.54948381 52.2665938 2.64990234 56.13671875 C0 58 0 58 -3.0625 58.625 C-6 58 -6 58 -8.15039062 56.15258789 C-10.88737175 51.48750905 -10.57291273 47.25126571 -10.53125 41.93359375 C-10.5350769 40.86254898 -10.53890381 39.79150421 -10.54284668 38.68800354 C-10.54556443 36.42781634 -10.53821295 34.16759762 -10.52148438 31.9074707 C-10.50005303 28.44606575 -10.52130283 24.98673156 -10.546875 21.52539062 C-10.54423211 19.32812042 -10.53910795 17.1308515 -10.53125 14.93359375 C-10.53934692 13.89810898 -10.54744385 12.86262421 -10.55578613 11.79576111 C-10.462539 4.662244 -10.462539 4.662244 -8.15039062 1.35180664 C-5.14120425 -0.5398674 -3.49124979 -0.64124996 0 0 Z " fill="#5E2F19" transform="translate(377,337)"/>
<path d="M0 0 C4.46923906 0.83324796 5.85025862 2.132589 8.51171875 5.68359375 C10.35086788 8.81809044 10.8889314 11.06173472 10.6875 14.6875 C8.6875 17.6875 8.6875 17.6875 5.6875 19.6875 C2.1875 19.9375 2.1875 19.9375 -1.3125 18.6875 C-4.80646701 15.55256218 -6.18436546 12.63249221 -6.8125 8 C-6.03723037 2.86383873 -5.22207711 1.08382732 0 0 Z " fill="#5C3316" transform="translate(300.3125,215.3125)"/>
<path d="M0 0 C2.64 0 5.28 0 8 0 C8 1.65 8 3.3 8 5 C5.36 5 2.72 5 0 5 C0 3.35 0 1.7 0 0 Z " fill="#D31867" transform="translate(341,376)"/>
</svg>
