<?xml version="1.0" encoding="UTF-8"?>
<svg version="1.1" xmlns="http://www.w3.org/2000/svg" width="512" height="512">
<path d="M0 0 C0.67903885 -0.0065712 1.3580777 -0.0131424 2.05769348 -0.01991272 C4.29049831 -0.03951282 6.52323603 -0.05128335 8.75610352 -0.0612793 C9.91128322 -0.06739259 9.91128322 -0.06739259 11.08979988 -0.07362938 C15.17249399 -0.09444161 19.25515506 -0.10875973 23.33789062 -0.11816406 C27.51334056 -0.12917096 31.68824913 -0.1635177 35.86350918 -0.20333576 C39.10930735 -0.22974201 42.35498168 -0.23787728 45.60087776 -0.24144554 C47.13757004 -0.24625606 48.67425894 -0.25770744 50.21084404 -0.27648354 C63.72175228 -0.4312145 76.21578578 1.53517459 88.32250977 7.98950195 C89.32326538 8.50770508 89.32326538 8.50770508 90.34423828 9.03637695 C95.69502316 11.88144431 100.38800539 15.17962825 104.94750977 19.17700195 C106.01291992 20.01231445 106.01291992 20.01231445 107.09985352 20.86450195 C114.48625949 26.88786289 122.3485651 35.79937717 125.99327087 44.7432251 C127.83084266 47.57524664 127.83084266 47.57524664 131.67118835 47.85902405 C133.25445348 47.91015405 134.83876197 47.93336232 136.42285156 47.93505859 C137.28826065 47.95506424 138.15366974 47.97506989 139.04530334 47.99568176 C141.91274555 48.05347404 144.77875887 48.07288791 147.64672852 48.0871582 C149.64110291 48.10830341 151.63547245 48.12991121 153.62983704 48.15196228 C157.81551032 48.19096454 162.00067955 48.20818632 166.18652344 48.21337891 C171.54032125 48.2240303 176.88968532 48.3129188 182.24226665 48.42163944 C186.36465563 48.49241432 190.48598408 48.50874617 194.60892677 48.51022148 C196.58139193 48.51979225 198.55386639 48.54902875 200.52573204 48.59858894 C211.51146128 49.21495985 211.51146128 49.21495985 220.8838501 44.54580688 C222.92860074 41.49671519 224.45637963 38.52344986 225.94750977 35.17700195 C237.96427043 17.97073145 256.96155964 4.73846879 277.70399475 0.63117981 C281.17246379 0.14550244 284.49787653 0.02824701 288 0 C288.67903885 -0.0065712 289.3580777 -0.0131424 290.05769348 -0.01991272 C292.29049831 -0.03951282 294.52323603 -0.05128335 296.75610352 -0.0612793 C297.91128322 -0.06739259 297.91128322 -0.06739259 299.08979988 -0.07362938 C303.17249399 -0.09444161 307.25515506 -0.10875973 311.33789062 -0.11816406 C315.51334056 -0.12917096 319.68824913 -0.1635177 323.86350918 -0.20333576 C327.10930735 -0.22974201 330.35498168 -0.23787728 333.60087776 -0.24144554 C335.13757004 -0.24625606 336.67425894 -0.25770744 338.21084404 -0.27648354 C351.72212459 -0.43121876 364.21524752 1.53564415 376.32250977 7.98950195 C376.98895508 8.33424561 377.65540039 8.67898926 378.34204102 9.03417969 C383.69060541 11.87593034 388.38658006 15.18734021 392.94750977 19.17700195 C393.5959082 19.68360352 394.24430664 20.19020508 394.91235352 20.7121582 C409.78897779 32.70183361 419.40211532 51.21075785 424.94750977 69.17700195 C425.26510254 70.18947998 425.26510254 70.18947998 425.58911133 71.22241211 C431.83131466 92.16990109 431.47752012 118.35948798 424.94750977 139.17700195 C424.73320312 139.87132324 424.51889648 140.56564453 424.2980957 141.28100586 C419.76258558 155.49821262 412.67692377 167.83283227 402.94750977 179.17700195 C402.45766602 179.79961914 401.96782227 180.42223633 401.46313477 181.0637207 C389.89102183 195.52886187 371.0778012 205.15947702 352.94750977 208.17700195 C350.63616157 208.28219411 348.3222106 208.33537651 346.00854492 208.35400391 C345.3296521 208.3605751 344.65075928 208.3671463 343.95129395 208.37391663 C341.71305198 208.39355836 339.47487716 208.40529799 337.23657227 208.4152832 C336.46553539 208.41935873 335.69449852 208.42343426 334.90009689 208.42763329 C330.81092349 208.44846531 326.72178326 208.46277374 322.63256836 208.47216797 C318.44924259 208.4831661 314.26645847 208.51749662 310.08332253 208.55733967 C306.83323316 208.58374885 303.58326746 208.59188154 300.33308029 208.59544945 C298.79359699 208.60026094 297.25411711 208.61171525 295.71474075 208.63048744 C282.18990059 208.78503478 269.69338266 206.82269006 257.57250977 200.36450195 C256.91041504 200.02338379 256.24832031 199.68226563 255.56616211 199.33081055 C249.38458067 196.05607122 243.90004004 192.12953223 238.94750977 187.17700195 C237.32817783 190.80164464 235.71085551 194.42717722 234.09521484 198.0534668 C233.28201212 199.87764618 232.46732061 201.70116165 231.65258789 203.5246582 C231.12729492 204.70415039 230.60200195 205.88364258 230.06079102 207.09887695 C229.58424072 208.1671875 229.10769043 209.23549805 228.61669922 210.33618164 C228.36436272 210.93411781 228.11202621 211.53205399 227.85204315 212.14810944 C226.94750977 214.17700195 226.94750977 214.17700195 225.71393585 216.46437836 C220.85657442 226.27618434 221.23662541 235.76394266 221.28808594 246.44946289 C221.27962125 248.48077372 221.2689719 250.51207643 221.25631714 252.54336548 C221.22829107 258.02606539 221.23062115 263.50837244 221.23861098 268.99112225 C221.241746 274.73268531 221.21667256 280.47412543 221.19465637 286.21563721 C221.15727278 297.07379555 221.14507173 307.93182866 221.14203197 318.79004502 C221.13645579 333.47276449 221.091748 348.15536223 221.04929066 362.8380127 C220.98348215 385.95103952 220.96975734 409.06379707 220.94750977 432.17700195 C186.62750977 432.17700195 152.30750977 432.17700195 116.94750977 432.17700195 C117.0493457 417.69180664 117.15118164 403.20661133 117.25610352 388.2824707 C117.28717073 379.06298927 117.31439672 369.84375639 117.32446289 360.62426758 C117.34111864 346.0153674 117.37270066 331.40767767 117.50634766 316.79931641 C117.60365062 306.15563872 117.64687121 295.51327468 117.62787014 284.86914712 C117.61964531 279.24392085 117.63664545 273.62157204 117.71865654 267.99687767 C118.06344867 243.09555211 118.03460001 222.97390657 102.52479649 202.4696703 C100.90457166 200.11458918 99.90518864 197.86180223 98.94750977 195.17700195 C98.37943604 195.46422119 97.8113623 195.75144043 97.22607422 196.04736328 C94.57773961 197.3759476 91.91913585 198.68265872 89.26000977 199.98950195 C88.36733398 200.44131836 87.4746582 200.89313477 86.55493164 201.35864258 C74.1567559 207.40330477 62.03259412 208.6460667 48.45532227 208.6105957 C46.89557675 208.6151734 45.33583323 208.62048359 43.77609253 208.6264801 C40.52699526 208.63534798 37.2781446 208.6330615 34.02905273 208.62304688 C29.90865305 208.61157085 25.78911224 208.6317798 21.66882515 208.66096401 C18.45302106 208.67949696 15.23741632 208.67899989 12.02157211 208.67332649 C10.50444205 208.67317533 8.98729664 208.67904597 7.47021866 208.69161797 C-5.93863763 208.78711602 -18.41932309 206.76553644 -30.42749023 200.36450195 C-31.09393555 200.0197583 -31.76038086 199.67501465 -32.44702148 199.31982422 C-37.79558588 196.47807357 -42.49156053 193.1666637 -47.05249023 189.17700195 C-47.70088867 188.67040039 -48.34928711 188.16379883 -49.01733398 187.6418457 C-63.89395826 175.6521703 -73.50709579 157.14324606 -79.05249023 139.17700195 C-79.26421875 138.5020166 -79.47594727 137.82703125 -79.6940918 137.1315918 C-85.93629512 116.18410282 -85.58250058 89.99451592 -79.05249023 69.17700195 C-78.83818359 68.48268066 -78.62387695 67.78835937 -78.40307617 67.07299805 C-73.86756605 52.85579128 -66.78190423 40.52117164 -57.05249023 29.17700195 C-56.56264648 28.55438477 -56.07280273 27.93176758 -55.56811523 27.2902832 C-42.7170281 11.22642429 -20.48181204 0.16519975 0 0 Z " fill="#000101" transform="translate(83.052490234375,79.822998046875)"/>
<path d="M0 0 C6.50487279 5.49900777 12.7310045 11.23435532 18.84399414 17.16430664 C20.06778734 18.34142358 21.30217471 19.50762955 22.54711914 20.66235352 C31.76675351 29.22823422 35.78727545 35.54756884 38 48 C38.76484417 50.56353002 39.69207499 52.94744285 40.6875 55.4375 C40.92734619 56.03747803 41.16719238 56.63745605 41.41430664 57.25561523 C43.80057327 62.98162117 46.87978838 68.3083606 50.19213867 73.54663086 C51.90059942 76.367172 53.03241923 78.35245315 52.8650713 81.69508743 C51.74763553 85.96413154 49.85926787 89.54252261 47.8190155 93.43719482 C33.80397254 121.41758934 30.2615588 145.0350102 30.87158608 176.06837177 C30.96438749 181.86427372 30.945372 187.65998988 30.93998718 193.45648193 C30.94595303 204.35391229 31.0473896 215.24810543 31.18625563 226.14456534 C31.33988906 238.58291145 31.38234317 251.0209398 31.41709387 263.46009684 C31.49078084 288.97532169 31.71342199 314.48621696 32 340 C8.24 340 -15.52 340 -40 340 C-39.93546631 330.60865601 -39.93546631 330.60865601 -39.86962891 321.02758789 C-39.73731862 300.27253863 -39.68203925 279.51780187 -39.66578102 258.76235294 C-39.65407065 246.18605057 -39.61660045 233.61084806 -39.51660156 221.03491211 C-39.42941993 210.06240364 -39.39249153 199.09101895 -39.41372812 188.11816591 C-39.42325682 182.31769439 -39.40910714 176.51964219 -39.33458328 170.71959114 C-38.55583955 136.31513391 -38.55583955 136.31513391 -53.36300468 106.16927147 C-55.68121984 103.09727856 -57.47476209 99.85622863 -59.32421875 96.484375 C-60.44297208 94.57154591 -61.56389954 92.6599859 -62.6875 90.75 C-63.26693359 89.76 -63.84636719 88.77 -64.44335938 87.75 C-67.35700507 82.68200313 -67.35700507 82.68200313 -70.56941223 77.80596924 C-72.38433471 74.24616203 -72.34215995 71.71495561 -72.29296875 67.73046875 C-72.28872391 67.04946609 -72.28447906 66.36846344 -72.28010559 65.66682434 C-72.2634061 63.50663541 -72.22577312 61.34740358 -72.1875 59.1875 C-72.17244174 57.71681042 -72.15875534 56.24610611 -72.14648438 54.77539062 C-72.11353214 51.18328643 -72.06181173 47.59173674 -72 44 C-62.698871 43.86090178 -53.39810067 43.75433035 -44.09615803 43.68912697 C-39.77670332 43.65783019 -35.45796081 43.61538939 -31.13891602 43.54736328 C-26.96970322 43.48210897 -22.8011748 43.44628151 -18.63149071 43.43073654 C-17.04180311 43.41966082 -15.45215247 43.39803138 -13.86275673 43.36561966 C-11.63335265 43.32196997 -9.40676547 43.31606862 -7.17700195 43.31884766 C-5.90903275 43.30552399 -4.64106354 43.29220032 -3.33467102 43.2784729 C1.29364797 44.27990829 2.34768703 46.17632755 5 50 C3.13906581 54.04430747 0.54762904 57.35739203 -2.1484375 60.87890625 C-7.65031894 70.15317475 -8.54846096 78.54047928 -8.25 89.1875 C-8.23195312 90.42564453 -8.21390625 91.66378906 -8.1953125 92.93945312 C-8.14865581 95.96047365 -8.08320983 98.9798031 -8 102 C-7.08476562 101.71125 -6.16953125 101.4225 -5.2265625 101.125 C-4.03804688 100.75375 -2.84953125 100.3825 -1.625 100 C-0.44164062 99.62875 0.74171875 99.2575 1.9609375 98.875 C5 98 5 98 7 98 C6.94779297 96.09927734 6.94779297 96.09927734 6.89453125 94.16015625 C6.86636763 92.46095089 6.83907025 90.76173102 6.8125 89.0625 C6.78736328 88.23169922 6.76222656 87.40089844 6.73632812 86.54492188 C6.61343021 76.01666756 9.92845829 68.72286792 17 61 C18.6280092 59.61973133 20.28043882 58.26438322 22 57 C23.50668965 53.98662071 23.45672499 52.38513813 23 49 C21.15338662 45.72859238 18.87060282 42.83209117 16.5625 39.875 C15.92812012 39.02752197 15.29374023 38.18004395 14.64013672 37.30688477 C11.90033477 33.66273277 9.14516726 30.08751121 6.06640625 26.72265625 C-0.55144632 19.17301004 -0.92862885 13.17732776 -0.31640625 3.515625 C-0.21199219 2.35546875 -0.10757813 1.1953125 0 0 Z " fill="#F8AB77" transform="translate(256,172)"/>
<path d="M0 0 C19.57749591 14.33430241 31.79422734 37.05298005 35.49609375 60.75 C38.83841587 86.07383743 34.16044431 113.44197143 19.0703125 134.390625 C6.94417382 149.67413563 -7.95718728 162.3495021 -28 165 C-46.97258233 165.96661261 -63.74922748 161.29665609 -78.1875 148.625 C-79.80795328 147.1004614 -81.4133845 145.55972371 -83 144 C-83.61617188 143.39671875 -84.23234375 142.7934375 -84.8671875 142.171875 C-103.24896236 122.68888782 -108.93773732 96.22422772 -108.28125 70.265625 C-107.31684922 47.97189353 -98.64550814 27.74583295 -84 11 C-83.39671875 10.30132812 -82.7934375 9.60265625 -82.171875 8.8828125 C-60.10304757 -14.94781208 -26.53247044 -16.86086951 0 0 Z " fill="#0E8BA7" transform="translate(460,107)"/>
<path d="M0 0 C8.56381949 6.02411944 16.20752437 12.60674777 21 22 C20.03320312 22.14695313 19.06640625 22.29390625 18.0703125 22.4453125 C5.10339238 24.59895315 -4.07897648 29.02036344 -12 40 C-12.391875 41.155 -12.78375 42.31 -13.1875 43.5 C-15 46 -15 46 -17.74609375 46.4453125 C-20.04321092 46.56747133 -22.34162536 46.66690598 -24.640625 46.74609375 C-32.27508584 47.32311695 -38.97840561 51.27407808 -44 57 C-49.97361273 66.56867449 -50.20688011 77.00033724 -49 88 C-46.86575932 95.37075263 -42.83217854 102.15213737 -36 106 C-28.90417902 109.37584093 -22.28093061 109.53786672 -14.5 109.6875 C-13.29601562 109.72166016 -12.09203125 109.75582031 -10.8515625 109.79101562 C-7.90113484 109.87297195 -4.95098484 109.94229384 -2 110 C-1.9906543 110.98806641 -1.98130859 111.97613281 -1.97167969 112.99414062 C-1.93153064 116.69217501 -1.86570606 120.38939905 -1.79248047 124.08691406 C-1.76441418 125.68120847 -1.74312887 127.27563832 -1.72900391 128.87011719 C-1.62391591 140.96412424 -1.62391591 140.96412424 3 152 C1.75798677 155.72603969 0.16589155 156.23777527 -3.21704102 157.95703125 C-3.92916748 158.30121094 -4.64129395 158.64539063 -5.375 159 C-6.10452881 159.35449219 -6.83405762 159.70898438 -7.58569336 160.07421875 C-23.38130165 167.56725282 -38.97204115 167.79009794 -55.5 162.25 C-65.57791451 158.38042101 -73.33694837 152.5331694 -81 145 C-81.61617187 144.39671875 -82.23234375 143.7934375 -82.8671875 143.171875 C-101.24896236 123.68888782 -106.93773732 97.22422772 -106.28125 71.265625 C-105.31684922 48.97189353 -96.64550814 28.74583295 -82 12 C-81.39671875 11.30132812 -80.7934375 10.60265625 -80.171875 9.8828125 C-58.5703586 -13.44319471 -26.45308553 -15.76314001 0 0 Z " fill="#0E8BA7" transform="translate(170,106)"/>
<path d="M0 0 C-4.35342305 4.48946752 -4.35342305 4.48946752 -6.7265625 6.36328125 C-23.98328084 20.10474215 -33.90643651 42.84198869 -38 64 C-38.22171875 64.88816406 -38.4434375 65.77632813 -38.671875 66.69140625 C-45.06128716 94.27812496 -37.30817619 125.71946191 -23.25 149.6875 C-17.36155809 158.86251414 -10.52484545 167.95140543 -1.36328125 174.046875 C-0.91339844 174.36140625 -0.46351563 174.6759375 0 175 C0 175.33 0 175.66 0 176 C-15.34270761 177.10688873 -28.93833712 171.09335086 -40.859375 161.76171875 C-43.33734054 159.58786716 -45.68630651 157.34710423 -48 155 C-48.61101562 154.39929688 -49.22203125 153.79859375 -49.8515625 153.1796875 C-67.651107 134.40482549 -73.57170663 108.76574193 -73.3515625 83.63720703 C-72.73088111 60.42630914 -64.2788188 39.46996724 -49 22 C-48.39671875 21.30132812 -47.7934375 20.60265625 -47.171875 19.8828125 C-34.80859181 6.53254452 -17.92164864 -0.59299573 0 0 Z " fill="#8EE0F1" transform="translate(377,96)"/>
<path d="M0 0 C-4.35342305 4.48946752 -4.35342305 4.48946752 -6.7265625 6.36328125 C-23.98328084 20.10474215 -33.90643651 42.84198869 -38 64 C-38.22171875 64.88816406 -38.4434375 65.77632813 -38.671875 66.69140625 C-45.06128716 94.27812496 -37.30817619 125.71946191 -23.25 149.6875 C-17.36155809 158.86251414 -10.52484545 167.95140543 -1.36328125 174.046875 C-0.91339844 174.36140625 -0.46351562 174.6759375 0 175 C0 175.33 0 175.66 0 176 C-15.34270761 177.10688873 -28.93833712 171.09335086 -40.859375 161.76171875 C-43.33734054 159.58786716 -45.68630651 157.34710423 -48 155 C-48.61101563 154.39929688 -49.22203125 153.79859375 -49.8515625 153.1796875 C-67.651107 134.40482549 -73.57170663 108.76574193 -73.3515625 83.63720703 C-72.73088111 60.42630914 -64.2788188 39.46996724 -49 22 C-48.39671875 21.30132812 -47.7934375 20.60265625 -47.171875 19.8828125 C-34.80859181 6.53254452 -17.92164864 -0.59299573 0 0 Z " fill="#8EE0F1" transform="translate(89,96)"/>
<path d="M0 0 C1.13888672 -0.07734375 1.13888672 -0.07734375 2.30078125 -0.15625 C6.0011644 0.86120396 7.69851564 3.39877275 9.6875 6.5 C10.89685062 8.85057613 12.00815469 11.23596905 13.1237793 13.63232422 C18.73115301 25.36349709 24.8719225 30.1662066 36.52172852 35.40356445 C41.60083064 37.97489211 46.04195351 40.56336053 47.875 46.0625 C47.66331015 49.94348066 46.97459724 51.40941997 44.6875 54.5 C42.35009766 55.88012695 42.35009766 55.88012695 39.6015625 56.98828125 C23.02912851 64.34762389 15.84186898 72.3605671 9.06762695 89.16259766 C7.34983227 92.0718788 5.7263556 93.08246648 2.6875 94.5 C-0.75 94.6875 -0.75 94.6875 -4.3125 93.5 C-7.78125749 89.94332726 -10.31970231 85.78282465 -12.27734375 81.23828125 C-18.31368745 67.37871214 -27.60090635 62.03628484 -41.01928711 55.74829102 C-43.24694595 54.53568379 -44.70441323 53.44800493 -46.3125 51.5 C-46.78125 49.37890625 -46.78125 49.37890625 -46.8125 47.0625 C-46.8434375 46.30066406 -46.874375 45.53882813 -46.90625 44.75390625 C-45.83224687 40.67693383 -42.52631668 39.22368724 -39.05908203 37.15649414 C-36.43212838 35.65310488 -33.78386291 34.19614813 -31.125 32.75 C-30.21041016 32.24339844 -29.29582031 31.73679687 -28.35351562 31.21484375 C-21.56967023 27.5 -21.56967023 27.5 -19.3125 27.5 C-19.0959375 26.71109375 -18.879375 25.9221875 -18.65625 25.109375 C-16.87831836 20.33376792 -14.39345461 16.13162062 -11.8125 11.75 C-11.31363281 10.88761719 -10.81476563 10.02523438 -10.30078125 9.13671875 C-5.08723393 0.20519935 -5.08723393 0.20519935 0 0 Z " fill="#010000" transform="translate(102.3125,311.5)"/>
<path d="M0 0 C4.33354228 1.64854151 6.05517723 5.84206403 8.07421875 9.7890625 C8.59122305 11.09325409 9.09976815 12.40081858 9.6015625 13.7109375 C15.35643657 27.67358279 25.20671796 32.37318951 38.67333984 38.29785156 C41.57324869 40.0990152 42.64208747 41.71473041 44.07421875 44.7890625 C44.26171875 48.2265625 44.26171875 48.2265625 43.07421875 51.7890625 C39.51754601 55.25781999 35.3570434 57.79626481 30.8125 59.75390625 C16.95293089 65.79024995 11.61050359 75.07746885 5.32250977 88.49584961 C4.10990254 90.72350845 3.02222368 92.18097573 1.07421875 93.7890625 C-1.046875 94.2578125 -1.046875 94.2578125 -3.36328125 94.2890625 C-4.12511719 94.32 -4.88695312 94.3509375 -5.671875 94.3828125 C-9.74884742 93.30880937 -11.20209401 90.00287918 -13.26928711 86.53564453 C-14.77267637 83.90869088 -16.22963312 81.26042541 -17.67578125 78.6015625 C-18.18238281 77.68697266 -18.68898437 76.77238281 -19.2109375 75.83007812 C-22.92578125 69.04623273 -22.92578125 69.04623273 -22.92578125 66.7890625 C-23.7146875 66.5725 -24.50359375 66.3559375 -25.31640625 66.1328125 C-30.09201333 64.35488086 -34.29416063 61.87001711 -38.67578125 59.2890625 C-39.53816406 58.79019531 -40.40054688 58.29132813 -41.2890625 57.77734375 C-47.65128642 54.06355733 -47.65128642 54.06355733 -49.92578125 51.7890625 C-50.33203125 49.80078125 -50.33203125 49.80078125 -50.42578125 47.4765625 C-50.503125 46.33767578 -50.503125 46.33767578 -50.58203125 45.17578125 C-49.56457729 41.4753981 -47.0270085 39.77804686 -43.92578125 37.7890625 C-41.57520512 36.57971188 -39.1898122 35.46840781 -36.79345703 34.3527832 C-25.07511592 28.75154293 -20.23763566 22.61213229 -15.02832031 10.95556641 C-11.57783122 4.17530949 -8.25722998 -1.27490445 0 0 Z " fill="#000101" transform="translate(233.92578125,10.2109375)"/>
<path d="M0 0 C8.36535866 5.04027905 12.59668414 11.22835123 16.171875 20.30859375 C18.42882482 29.43214243 17.58307049 38.57704578 12.73046875 46.73046875 C7.79811005 53.55108542 1.26622312 58.76037305 -6.828125 61.30859375 C-18.65027439 62.32938175 -27.61315088 61.70405344 -37.078125 54.05859375 C-43.24405548 48.32255882 -47.30005592 41.49103918 -48.1640625 33.01171875 C-48.28909935 21.95846088 -46.37721684 14.19585435 -38.6875 6.0625 C-28.37570411 -3.6643831 -13.02927199 -6.31788524 0 0 Z " fill="#000000" transform="translate(386.828125,2.69140625)"/>
<path d="M0 0 C8.34468007 4.97590182 13.53387008 11.86345977 16.109375 21.2578125 C17.10789012 32.35758522 16.45884702 41.9922991 9.359375 51.0703125 C3.70168013 57.1280464 -3.34488592 60.84888618 -11.625 61.59375 C-22.24007794 61.83258597 -31.18444828 60.63001931 -39.2890625 53.1015625 C-47.32833275 43.84659773 -48.61982016 35.03008751 -48.06982422 23.20654297 C-47.37894187 15.69343275 -43.42276801 9.23166585 -37.890625 4.2578125 C-27.15195714 -3.81766573 -12.32399863 -5.91386512 0 0 Z " fill="#000000" transform="translate(407.890625,314.7421875)"/>
<path d="M0 0 C8.05809276 4.59169009 13.48427565 12.03304734 16.265625 20.828125 C18.44411845 32.04333202 16.35712465 41.87704464 10.1484375 51.34765625 C5.36003955 57.41825554 -0.59347857 61.23947079 -8.26953125 62.4765625 C-16.60587154 62.88321325 -22.94772062 60.69130756 -29.3125 55.30859375 C-36.14134126 48.25899253 -39.55696701 39.62801156 -39.875 29.875 C-39.51731858 20.61616084 -36.33059541 12.10591208 -29.75 5.41015625 C-21.2434906 -2.35583113 -10.76043469 -4.85531809 0 0 Z " fill="#000202" transform="translate(447.3125,154)"/>
<path d="M0 0 C1.35332337 0.01121783 2.70667143 0.01974576 4.06002808 0.02572632 C7.58859863 0.04842299 11.11564098 0.10717085 14.64361572 0.1739502 C18.25699195 0.23579407 21.87061988 0.26283012 25.484375 0.29296875 C32.55009698 0.35694048 39.61479145 0.45907832 46.6796875 0.5859375 C46.03003525 1.31599503 45.380383 2.04605255 44.71104431 2.79823303 C42.60277116 5.69149258 42.17872745 6.71775086 42.17797852 10.18920898 C42.16390709 11.51099403 42.16390709 11.51099403 42.14955139 12.85948181 C42.16078537 13.79917313 42.17201935 14.73886444 42.18359375 15.70703125 C42.1814109 17.17330711 42.1814109 17.17330711 42.17918396 18.66920471 C42.18084098 20.73270656 42.19238012 22.79622101 42.21313477 24.85961914 C42.24205643 28.00916373 42.23374554 31.15702066 42.22070312 34.30664062 C42.22694201 36.31511231 42.23533413 38.3235787 42.24609375 40.33203125 C42.24315811 41.26969833 42.24022247 42.20736542 42.23719788 43.17344666 C42.31228926 48.40882754 42.82706132 52.01691267 45.6796875 56.5859375 C43.28194005 56.72165905 40.89193505 56.82030618 38.4921875 56.8984375 C37.48188477 56.9612793 37.48188477 56.9612793 36.45117188 57.02539062 C32.77998398 57.11493179 30.93663843 56.77795498 27.97460938 54.56445312 C25.08743831 50.81727365 25.0332197 47.97603587 25.19140625 43.44140625 C25.19848099 42.67161942 25.20555573 41.90183258 25.21284485 41.10871887 C25.24071825 38.66261447 25.30343613 36.21884366 25.3671875 33.7734375 C25.39227982 32.11005923 25.41509137 30.44664488 25.43554688 28.78320312 C25.48626216 24.7158373 25.58410551 20.65348222 25.6796875 16.5859375 C20.3996875 16.5859375 15.1196875 16.5859375 9.6796875 16.5859375 C10.1746875 36.3859375 10.1746875 36.3859375 10.6796875 56.5859375 C4.96540179 55.44308036 4.96540179 55.44308036 2.6796875 52.5859375 C1.14671453 49.51999156 1.55837295 46.31481897 1.58203125 42.953125 C1.5834462 42.20128937 1.58486115 41.44945374 1.58631897 40.67483521 C1.59192285 38.2701624 1.60447593 35.86558223 1.6171875 33.4609375 C1.622202 31.83203259 1.626765 30.20312623 1.63085938 28.57421875 C1.64104326 24.57806048 1.66061778 20.58210285 1.6796875 16.5859375 C-3.6003125 16.5859375 -8.8803125 16.5859375 -14.3203125 16.5859375 C-13.9903125 29.4559375 -13.6603125 42.3259375 -13.3203125 55.5859375 C-19.08030291 54.43393942 -23.05492983 52.62685658 -26.62109375 47.83984375 C-32.07469374 38.61830195 -31.36536238 26.94885115 -30.3203125 16.5859375 C-28.25808228 9.36405617 -23.64736237 5.48751228 -17.30474854 1.82098389 C-11.68216289 -0.5058055 -5.99737034 -0.1447935 0 0 Z " fill="#F9CAA9" transform="translate(198.3203125,143.4140625)"/>
<path d="M0 0 C4.98669007 2.49334503 8.49675474 5.99350949 11 11 C11.54360446 15.95482094 11.56437074 19.87125852 9.3125 24.375 C6.14745126 27.96775803 2.78798338 31.69412413 -2.171875 32.23828125 C-8.01846537 32.40659218 -11.43192863 32.02425335 -16 28 C-20.3022759 23.23261319 -21.36282503 19.56252705 -21.28125 13.28125 C-20.69180611 8.50020514 -17.85179203 5.75038822 -14.375 2.6875 C-9.71860985 -0.62098774 -5.60468123 -0.62082623 0 0 Z " fill="#8CDDEE" transform="translate(397,328)"/>
<path d="M0 0 C3.51314212 3.02293624 7.38721398 6.42513439 7.890625 11.265625 C7.99536406 16.3978387 7.66871021 19.94005836 4.6875 24.3125 C0.77583782 28.25622499 -2.44540708 30.15690892 -8.0625 30.625 C-12.61052763 30.5497569 -15.82069486 29.21052101 -19.3125 26.3125 C-23.39513862 21.04804494 -24.96942502 16.99123773 -24.3125 10.3125 C-22.21187657 5.2634679 -19.23059255 1.35858438 -14.26953125 -1.0625 C-9.08587319 -2.71795966 -4.82771054 -2.45939971 0 0 Z " fill="#F18D36" transform="translate(379.3125,17.6875)"/>
<path d="M0 0 C14.52 0 29.04 0 44 0 C42.84001551 6.95990694 41.85649047 12.50228335 40 19 C39.51826312 21.96889116 39.18767036 24.94662863 38.875 27.9375 C38.78863281 28.71673828 38.70226562 29.49597656 38.61328125 30.29882812 C38.40348677 32.1986337 38.20098006 34.09924174 38 36 C33.19604346 31.99900374 28.68415141 27.8108699 24.296875 23.359375 C23.6924054 22.75111877 23.08793579 22.14286255 22.46514893 21.51617432 C20.55762228 19.5965548 18.65341037 17.67370054 16.75 15.75 C14.22684252 13.20024297 11.70038373 10.65382417 9.171875 8.109375 C8.59685242 7.52605408 8.02182983 6.94273315 7.42938232 6.34173584 C5.04745268 3.94517507 2.82131775 1.8808785 0 0 Z " fill="#FACBAA" transform="translate(250,144)"/>
<path d="M0 0 C2.61570918 2.34723463 4.04803514 4.78397456 5.6875 7.875 C8.68216666 12.99275124 11.78855615 15.36752528 17 18 C17.99 18.598125 18.98 19.19625 20 19.8125 C20.66 20.204375 21.32 20.59625 22 21 C19.50247801 23.93187363 17.19419132 25.39088559 13.75 26.9375 C7.27640202 30.30849464 4.32970021 36.80330995 1 43 C-1.47279629 40.77448334 -2.72650868 38.68648694 -4.125 35.6875 C-6.98284577 30.3615147 -10.83541561 27.91383423 -16 25 C-17.010625 24.38125 -18.02125 23.7625 -19.0625 23.125 C-19.701875 22.75375 -20.34125 22.3825 -21 22 C-18.95078013 20.3700458 -17.02223006 19.01094746 -14.66796875 17.8515625 C-6.54115695 13.83295005 -3.58202289 7.99431599 0 0 Z " fill="#F08C36" transform="translate(102,337)"/>
<path d="M0 0 C2.93187363 2.49752199 4.39088559 4.80580868 5.9375 8.25 C9.30849464 14.72359798 15.80330995 17.67029979 22 21 C19.77448334 23.47279629 17.68648694 24.72650868 14.6875 26.125 C9.3615147 28.98284577 6.91383423 32.83541561 4 38 C3.38125 39.010625 2.7625 40.02125 2.125 41.0625 C1.75375 41.701875 1.3825 42.34125 1 43 C-0.6299542 40.95078013 -1.98905254 39.02223006 -3.1484375 36.66796875 C-7.16704995 28.54115695 -13.00568401 25.58202289 -21 22 C-18.65276537 19.38429082 -16.21602544 17.95196486 -13.125 16.3125 C-8.00724876 13.31783334 -5.63247472 10.21144385 -3 5 C-2.401875 4.01 -1.80375 3.02 -1.1875 2 C-0.795625 1.34 -0.40375 0.68 0 0 Z " fill="#8CDEEF" transform="translate(230,36)"/>
<path d="M0 0 C1.12588014 0.95729916 2.2506715 1.91587895 3.375 2.875 C4.00148438 3.40867188 4.62796875 3.94234375 5.2734375 4.4921875 C8.98137153 7.73033803 9.60468599 9.88019513 10.75 14.6875 C13.85763408 26.91321834 18.45675098 37.89504577 25.19213867 48.54663086 C27.00478056 51.53916728 28.01316489 53.53025291 27.9140625 57.06640625 C26.91815765 60.26266499 25.76881842 63.30272673 24.4375 66.375 C23.98246094 67.43460937 23.52742188 68.49421875 23.05859375 69.5859375 C22.70925781 70.38257813 22.35992187 71.17921875 22 72 C7.17267675 54.16967458 -0.42805921 22.76267822 0 0 Z " fill="#CB9066" transform="translate(281,197)"/>
<path d="M0 0 C3.65408256 1.58367793 5.87762784 4.54379472 7.96484375 7.8515625 C9.69993067 13.05682325 9.75846576 18.52168756 7.71484375 23.6640625 C5.03459196 28.54594969 3.59059204 30.3718335 -1.84765625 31.9765625 C-5.38540071 32.26090458 -7.14760564 31.48641487 -9.91015625 29.2890625 C-14.10758498 25.12031779 -15.09512186 21.15014071 -15.34765625 15.3515625 C-15.18142391 9.5236522 -13.27410496 6.20576226 -9.34765625 1.9140625 C-5.69833194 -0.3581583 -4.11629899 -0.80587811 0 0 Z " fill="#06616F" transform="translate(439.03515625,168.1484375)"/>
<path d="M0 0 C0.03963867 0.55349121 0.07927734 1.10698242 0.12011719 1.67724609 C1.04271687 16.32887809 1.04271687 16.32887809 6 30 C6.33 30.66 6.66 31.32 7 32 C-7.86476101 33.03307219 -7.86476101 33.03307219 -12.375 29.1875 C-16.65186319 24.74614208 -16.38307367 19.60688965 -16.46630859 13.70849609 C-16.38142855 9.49210537 -15.88955773 6.84022773 -13.125 3.625 C-8.84309 -0.40868333 -5.70171603 -0.09196316 0 0 Z " fill="#06616F" transform="translate(152,168)"/>
<path d="M0 0 C8.51885116 -0.13913866 17.03722618 -0.24568913 25.5569334 -0.31087303 C29.51321792 -0.34216157 33.46872404 -0.38458591 37.42456055 -0.45263672 C41.24365169 -0.51792255 45.06199517 -0.55372469 48.88160133 -0.56926346 C50.33732689 -0.58033371 51.79301237 -0.60195277 53.24841881 -0.63438034 C64.70071159 -0.87935324 64.70071159 -0.87935324 68.03262329 1.37567139 C69.43286133 3.03662109 69.43286133 3.03662109 71 6 C69.54075059 9.17133907 67.72427186 11.78027726 65.625 14.5625 C57.9840811 25.53040233 57.28558409 36.02020331 57 49 C56.67 49 56.34 49 56 49 C55.97491928 44.53833361 55.95696373 40.07670669 55.94506836 35.61499023 C55.94009927 34.1032642 55.93332168 32.5915428 55.92456055 31.07983398 C55.87144555 21.66598269 56.09099869 12.38208233 57 3 C56.38914047 3.00444122 55.77828094 3.00888245 55.14891052 3.01345825 C48.77336981 3.05781126 42.39787317 3.0879161 36.0222168 3.10986328 C33.64492003 3.11990158 31.26763555 3.13353504 28.89038086 3.15087891 C25.46725424 3.17522241 22.04429134 3.18650505 18.62109375 3.1953125 C17.56353378 3.20563507 16.50597382 3.21595764 15.41636658 3.22659302 C9.87108615 3.22743027 5.23623309 2.86478295 0 1 C0 0.67 0 0.34 0 0 Z " fill="#DF7D39" transform="translate(190,216)"/>
<path d="M0 0 C4.62 0 9.24 0 14 0 C12.23703704 11.20740741 12.23703704 11.20740741 11 15.34375 C9.85207474 19.54085174 9.32630696 23.62048994 8.875 27.9375 C8.78863281 28.71673828 8.70226562 29.49597656 8.61328125 30.29882812 C8.40348677 32.1986337 8.20098006 34.09924174 8 36 C6.85373678 35.02133662 5.70800212 34.04205413 4.5625 33.0625 C3.60537109 32.24458984 3.60537109 32.24458984 2.62890625 31.41015625 C1.73008851 30.63204305 0.84063472 29.84063472 0 29 C-0.08775605 26.85441173 -0.10695219 24.70595579 -0.09765625 22.55859375 C-0.09443359 21.25341797 -0.09121094 19.94824219 -0.08789062 18.60351562 C-0.07953401 17.2148431 -0.07106905 15.82617123 -0.0625 14.4375 C-0.05748666 13.04492344 -0.05292347 11.65234519 -0.04882812 10.25976562 C-0.03699442 6.83982549 -0.01905831 3.4199075 0 0 Z " fill="#CFAA90" transform="translate(280,144)"/>
<path d="M0 0 C5.28 0 10.56 0 16 0 C16 5.28 16 10.56 16 16 C10.72 16 5.44 16 0 16 C0 10.72 0 5.44 0 0 Z " fill="#000000" transform="translate(368,400)"/>
<path d="M0 0 C5.28 0 10.56 0 16 0 C16 5.28 16 10.56 16 16 C10.72 16 5.44 16 0 16 C0 10.72 0 5.44 0 0 Z " fill="#000000" transform="translate(72,32)"/>
</svg>
